<?xml version="1.0" standalone="no"?><!DOCTYPE svg PUBLIC "-//W3C//DTD SVG 1.1//EN" "http://www.w3.org/Graphics/SVG/1.1/DTD/svg11.dtd"><svg t="1679213942055" class="icon" viewBox="0 0 1024 1024" version="1.1" xmlns="http://www.w3.org/2000/svg" p-id="1254" xmlns:xlink="http://www.w3.org/1999/xlink" width="200" height="200"><path d="M512 983.04C250.88 983.04 40.96 773.12 40.96 512c0-122.88 51.2-240.64 138.24-332.8C266.24 92.16 384 40.96 512 40.96s245.76 51.2 332.8 138.24 138.24 204.8 138.24 332.8c0 261.12-209.92 471.04-471.04 471.04z m0-855.04c-102.4 0-199.68 40.96-271.36 112.64S128 409.6 128 512c0 209.92 174.08 384 384 384s384-174.08 384-384c0-102.4-40.96-199.68-112.64-271.36S614.4 128 512 128z" p-id="1255" fill="#7ebbb7"></path><path d="M189.44 552.96h-102.4c-25.6 0-46.08-15.36-46.08-40.96s20.48-40.96 40.96-40.96h102.4c25.6 0 40.96 20.48 40.96 40.96s-15.36 40.96-35.84 40.96zM281.6 327.68c-10.24 0-20.48-5.12-30.72-10.24L179.2 240.64c-15.36-15.36-15.36-46.08 0-61.44s46.08-15.36 61.44 0l71.68 71.68c15.36 15.36 15.36 46.08 0 61.44-10.24 10.24-20.48 15.36-30.72 15.36zM512 230.4c-25.6 0-40.96-20.48-40.96-40.96v-102.4c0-25.6 20.48-40.96 40.96-40.96s40.96 20.48 40.96 40.96v102.4c0 20.48-15.36 40.96-40.96 40.96zM936.96 552.96h-102.4c-25.6 0-40.96-20.48-40.96-40.96s20.48-40.96 40.96-40.96h102.4c25.6 0 40.96 20.48 40.96 40.96s-15.36 40.96-40.96 40.96zM742.4 327.68c-10.24 0-20.48-5.12-30.72-10.24-15.36-15.36-15.36-46.08 0-61.44l71.68-71.68c15.36-15.36 46.08-15.36 61.44 0s15.36 46.08 0 61.44l-71.68 71.68c-10.24 5.12-20.48 10.24-30.72 10.24zM512 727.04c-25.6 0-40.96-20.48-40.96-40.96v-256c0-25.6 20.48-40.96 40.96-40.96s40.96 20.48 40.96 40.96v256c0 20.48-15.36 40.96-40.96 40.96z" p-id="1256" fill="#7ebbb7"></path><path d="M512 983.04c-148.48 0-281.6-66.56-373.76-184.32l-30.72-40.96 46.08-20.48c220.16-122.88 501.76-122.88 716.8 0l40.96 25.6-30.72 40.96c-87.04 112.64-220.16 179.2-368.64 179.2z m-271.36-199.68c71.68 71.68 168.96 112.64 271.36 112.64s199.68-40.96 271.36-112.64c-168.96-76.8-373.76-76.8-542.72 0z" p-id="1257" fill="#7ebbb7"></path></svg>