<?xml version="1.0" standalone="no"?><!DOCTYPE svg PUBLIC "-//W3C//DTD SVG 1.1//EN" "http://www.w3.org/Graphics/SVG/1.1/DTD/svg11.dtd"><svg t="1679214245649" class="icon" viewBox="0 0 1025 1024" version="1.1" xmlns="http://www.w3.org/2000/svg" p-id="1686" xmlns:xlink="http://www.w3.org/1999/xlink" width="200.1953125" height="200"><path d="M922.678044 153.6c-5.688889-85.333333-79.644444-153.6-170.666666-153.6H234.322489c-85.333333 0-159.288889 68.266667-170.666667 153.6L1.078044 824.888889c-5.688889 45.511111 11.377778 96.711111 45.511112 130.844444s79.644444 56.888889 125.155555 56.888889h648.533333c45.511111 0 96.711111-22.755556 125.155556-56.888889 34.133333-34.133333 45.511111-85.333333 45.511111-130.844444L922.678044 153.6z m-51.2 733.866667c-17.066667 17.066667-34.133333 22.755556-51.2 22.755555H171.744711c-17.066667 0-39.822222-5.688889-51.2-22.755555-11.377778-17.066667-17.066667-34.133333-17.066667-51.2L166.055822 164.977778c5.688889-34.133333 34.133333-62.577778 68.266667-62.577778h517.688889c34.133333 0 68.266667 28.444444 68.266666 62.577778l62.577778 671.288889c5.688889 17.066667 0 34.133333-11.377778 51.2z m-176.355555-625.777778c-28.444444 0-51.2 22.755556-51.2 51.2 0 85.333333-68.266667 153.6-153.6 153.6S342.411378 392.533333 342.411378 307.2c0-22.755556-22.755556-45.511111-51.2-45.511111s-51.2 22.755556-51.2 45.511111c0 142.222222 113.777778 256 250.311111 256s250.311111-113.777778 250.311111-256c5.688889-22.755556-17.066667-45.511111-45.511111-45.511111z" p-id="1687" fill="#7ebbb7"></path></svg>