<?xml version="1.0" standalone="no"?><!DOCTYPE svg PUBLIC "-//W3C//DTD SVG 1.1//EN" "http://www.w3.org/Graphics/SVG/1.1/DTD/svg11.dtd"><svg t="1679214347341" class="icon" viewBox="0 0 1024 1024" version="1.1" xmlns="http://www.w3.org/2000/svg" p-id="2104" xmlns:xlink="http://www.w3.org/1999/xlink" width="200" height="200"><path d="M512 1018.88C235.52 1018.88 5.12 793.6 5.12 512 5.12 235.52 230.4 5.12 512 5.12c276.48 0 506.88 225.28 506.88 506.88 0 276.48-230.4 506.88-506.88 506.88z m0-921.6c-230.4 0-414.72 184.32-414.72 414.72s184.32 414.72 414.72 414.72 414.72-184.32 414.72-414.72-184.32-414.72-414.72-414.72z" p-id="2105" fill="#7ebbb7"></path><path d="M148.48 711.68c-15.36 0-25.6-5.12-35.84-10.24-5.12-5.12-15.36-5.12-25.6-10.24l-40.96-15.36 35.84-81.92 40.96 15.36c5.12 0 10.24 5.12 15.36 5.12 5.12-10.24 5.12-35.84 10.24-51.2 0-46.08 5.12-102.4 51.2-128s97.28 5.12 133.12 30.72c35.84 20.48 61.44 35.84 76.8 25.6 10.24-5.12 15.36-20.48 10.24-71.68-5.12-40.96-10.24-92.16 30.72-128 35.84-30.72 71.68-35.84 97.28-35.84h20.48v-10.24-15.36s-5.12 0-10.24-5.12c-15.36-15.36-46.08-30.72-56.32-87.04l-5.12-25.6c-5.12-30.72-15.36-71.68 30.72-87.04l40.96-10.24 25.6 87.04h-10.24l5.12 20.48c5.12 15.36 5.12 15.36 20.48 25.6 20.48 15.36 61.44 35.84 51.2 107.52-10.24 81.92-71.68 87.04-102.4 87.04-25.6 0-35.84 5.12-51.2 15.36-5.12 5.12-5.12 35.84 0 56.32 5.12 46.08 15.36 117.76-51.2 153.6-66.56 40.96-128-5.12-168.96-30.72-15.36-10.24-35.84-25.6-46.08-25.6-5.12 5.12-5.12 40.96-10.24 61.44-5.12 35.84-5.12 81.92-35.84 107.52-5.12 5.12-5.12 5.12-5.12 10.24-15.36 15.36-30.72 20.48-40.96 20.48z m5.12-87.04zM614.4 983.04l-30.72-30.72c-56.32-56.32-76.8-112.64-56.32-168.96 15.36-46.08 35.84-66.56 51.2-76.8l15.36-15.36v-15.36c0-30.72-5.12-92.16 81.92-138.24 76.8-40.96 168.96-5.12 281.6 107.52l30.72 30.72-66.56 61.44-30.72-30.72c-81.92-76.8-143.36-112.64-179.2-92.16s-35.84 30.72-30.72 56.32c0 15.36 0 35.84-5.12 51.2-10.24 25.6-25.6 40.96-35.84 51.2s-20.48 15.36-25.6 40.96c-5.12 20.48 5.12 51.2 35.84 81.92l30.72 30.72-66.56 56.32z" p-id="2106" fill="#7ebbb7"></path></svg>