<?xml version="1.0" standalone="no"?><!DOCTYPE svg PUBLIC "-//W3C//DTD SVG 1.1//EN" "http://www.w3.org/Graphics/SVG/1.1/DTD/svg11.dtd"><svg t="1679217494042" class="icon" viewBox="0 0 1024 1024" version="1.1" xmlns="http://www.w3.org/2000/svg" p-id="4577" xmlns:xlink="http://www.w3.org/1999/xlink" width="200" height="200"><path d="M832 1024H192a192 192 0 0 1-192-192V192a192 192 0 0 1 192-192h640c105.984 0 192 85.952 192 192v640c0 106.048-86.016 192-192 192z m-128-128V384H320v512h384zM128 832a64 64 0 0 0 64 64h64V384H128v448zM896 192a64 64 0 0 0-64-64H192C156.672 128 128 156.672 128 192v128h768V192z m0 192h-128v512h64c35.392 0 64-28.608 64-64V384z" p-id="4578" fill="#7ebbb7"></path></svg>