<?xml version="1.0" standalone="no"?><!DOCTYPE svg PUBLIC "-//W3C//DTD SVG 1.1//EN" "http://www.w3.org/Graphics/SVG/1.1/DTD/svg11.dtd"><svg t="1679217565871" class="icon" viewBox="0 0 1024 1024" version="1.1" xmlns="http://www.w3.org/2000/svg" p-id="1365" xmlns:xlink="http://www.w3.org/1999/xlink" width="200" height="200"><path d="M864.3 88.5L261.5 3.3c-76.9-10.9-147 38.8-147 104.3v787.1c0 12.4 8.7 23.1 20.9 25.6l485.4 101.4c16.4 3.4 31.7-9 31.7-25.7V220.4c0-12.7-9-23.5-21.5-25.8L169 110c12.5-32.6 50.1-46.8 100-38l496.3 85.1c20.9 3.7 36.2 22.6 36.2 44.8v736.6l55.7 10.2c26.9 4.9 52.3-12.2 52.3-35.2V133.4c0-22.2-19.1-41.2-45.2-44.9zM325.6 333.6c88.7-23.2 180.8 35 205.7 130.1 16.8 64.1-1.3 128.5-42.1 170.8l57.3 94.8c13.4 22.1 6.3 50.9-15.9 64.3s-51 6.3-64.3-15.9l-59.2-97.9c-86.1 17.5-173.1-40-197.2-132-24.8-95.1 27-191 115.7-214.2z" fill="#7ebbb7" p-id="1366"></path></svg>