<?xml version="1.0" standalone="no"?><!DOCTYPE svg PUBLIC "-//W3C//DTD SVG 1.1//EN" "http://www.w3.org/Graphics/SVG/1.1/DTD/svg11.dtd"><svg t="1679217824246" class="icon" viewBox="0 0 1024 1024" version="1.1" xmlns="http://www.w3.org/2000/svg" p-id="1567" xmlns:xlink="http://www.w3.org/1999/xlink" width="200" height="200"><path d="M22.8 123.6h76.7c24.9 0 45-20.2 45-45V1.9L22.8 123.6z" fill="#7ebbb7" p-id="1568"></path><path d="M209 1022.2c164.8-78.6 286.5-213.9 384-338.8l-128-68c-16.4-9-13.7-33.2 4.2-38.5L859 385.8V69.6c0-37.3-30.6-67.8-68-67.8H166.8v75.9c0 37.6-30.5 68-68 68h-76v808.7c0 37.3 30.6 67.8 68 67.8H791c37.4 0 68-30.5 68-67.8V850.8c-63.4 69.2-131.2 129.9-211 171.4H209z m-20.3-833.9h504.6c25 0 45.4 20.2 45.4 45.2s-20.3 45.2-45.4 45.2H188.6c-25 0-45.3-20.2-45.3-45.2s20.3-45.2 45.4-45.2z m0 220.6h296.9c25 0 45.4 20.2 45.4 45.2s-20.3 45.2-45.4 45.2h-297c-25-0.1-45.3-20.3-45.3-45.2 0-25 20.3-45.2 45.4-45.2z m-45.5 265.6c0-25 20.3-45.2 45.4-45.2h160.2c25.1 0 45.4 20.2 45.4 45.2s-20.3 45.2-45.4 45.2H188.6c-25 0-45.4-20.2-45.4-45.2z" fill="#7ebbb7" p-id="1569"></path><path d="M619.8 590.8l234.1-100.4c7.4-3.2 15.8 0.3 18.8 7.7l95.6 236.1c4.8 12-7.1 24.1-18.9 19.3L619.7 617.8c-11.8-4.8-11.8-21.9 0.1-27z" fill="#7ebbb7" p-id="1570"></path><path d="M856.4 694.6C778 884.4 588.9 995.1 394.7 982.8c-2.2-0.1-2.7-3.1-0.7-4C537.9 914.3 658.5 797 724 640l132.4 54.6z" fill="#7ebbb7" p-id="1571"></path></svg>