<?xml version="1.0" standalone="no"?><!DOCTYPE svg PUBLIC "-//W3C//DTD SVG 1.1//EN" "http://www.w3.org/Graphics/SVG/1.1/DTD/svg11.dtd"><svg t="1679219871046" class="icon" viewBox="0 0 1024 1024" version="1.1" xmlns="http://www.w3.org/2000/svg" p-id="2319" xmlns:xlink="http://www.w3.org/1999/xlink" width="200" height="200"><path d="M792.187431 0c12.777217 0 31.943042 0 44.720258 6.388608 12.777217 0 31.943042 6.388608 44.720258 12.777217 19.165825 6.388608 31.943042 31.943042 19.165825 51.108866 0 6.388608-6.388608 6.388608-6.388608 12.777217l-89.440517 89.440516 6.388609 19.165825 6.388608 19.165825h12.777217l19.165825 6.388609L939.125422 127.772166c12.777217-12.777217 38.33165-12.777217 57.497475 0 6.388608 6.388608 6.388608 12.777217 6.388608 19.165825 6.388608 12.777217 6.388608 25.554433 12.777217 38.33165 6.388608 12.777217 6.388608 25.554433 6.388608 44.720258 0 63.886083-25.554433 121.383558-70.274691 159.715208-38.33165 38.33165-102.217733 70.274691-159.715208 70.274692h-12.777217l-44.720258 44.720258 236.378508 236.378507c31.943042 31.943042 44.720258 70.274691 44.720258 114.99495 0 38.33165-12.777217 83.051908-44.720258 114.99495-31.943042 31.943042-70.274691 44.720258-114.99495 44.720258-38.33165 0-83.051908-12.777217-114.99495-44.720258l-236.378507-236.378508-242.767116 242.767116c-51.108867 51.108867-114.99495 57.497475-166.103816 31.943041-19.165825-6.388608-38.33165-19.165825-51.108867-31.943041-12.777217-12.777217-25.554433-31.943042-31.943041-51.108867-19.165825-51.108867-19.165825-114.99495 31.943041-166.103816L319.430416 485.534232 217.212683 389.705107 127.772166 357.762066c-12.777217 0-19.165825-12.777217-25.554433-19.165825L19.165825 140.549383c-6.388608-12.777217-6.388608-31.943042 6.388608-44.720258L63.886083 57.497475l31.943042-31.943042c12.777217-12.777217 31.943042-19.165825 44.720258-12.777216l204.435466 83.051908c6.388608 12.777217 19.165825 19.165825 19.165825 31.943041l25.554433 89.440517L491.92284 319.430416l70.274692-70.274692v-12.777216c0-63.886083 25.554433-121.383558 70.274691-159.715208 38.33165-51.108867 95.829125-76.6633 159.715208-76.6633zM562.197532 677.192481l236.378507 236.378508c12.777217 19.165825 38.33165 25.554433 57.497475 25.554433 19.165825 0 44.720258-6.388608 57.497475-25.554433 19.165825-12.777217 25.554433-38.33165 25.554433-57.497475 0-19.165825-6.388608-38.33165-25.554433-57.497475l-236.378508-236.378507-114.994949 114.994949zM376.92789 434.425365l63.886084-63.886083-114.99495-108.606341c0-6.388608-6.388608-12.777217-6.388608-19.165825l-25.554434-76.6633-159.715207-70.274691-12.777217 19.165825-19.165825 12.777216 70.274691 159.715208 83.051909 25.554433c0 6.388608 6.388608 6.388608 12.777216 12.777217l108.606341 108.606341z m408.870932-357.762065c-38.33165 0-76.6633 19.165825-102.217733 44.720258-25.554433 31.943042-44.720258 70.274691-44.720258 108.606341V249.155724c0 12.777217 0 25.554433-12.777216 38.33165l-530.25449 530.25449c-25.554433 25.554433-25.554433 51.108867-19.165825 76.6633 6.388608 6.388608 12.777217 19.165825 19.165825 25.554433 6.388608 6.388608 19.165825 12.777217 25.554433 19.165825 25.554433 12.777217 51.108867 6.388608 76.6633-19.165825l268.321549-268.321549L638.860831 479.145623l83.051908-83.051908c19.165825-12.777217 31.943042-19.165825 44.720259-19.165825h25.554433c44.720258 0 76.6633-19.165825 108.606341-44.720258 25.554433-25.554433 44.720258-63.886083 44.720258-102.217733-19.165825 25.554433-38.33165 38.33165-51.108866 57.497475-12.777217 12.777217-25.554433 12.777217-38.33165 12.777217l-38.33165-12.777217-38.33165-12.777217c-12.777217-6.388608-25.554433-12.777217-25.554433-25.554433l-12.777217-38.33165-12.777216-38.33165c0-12.777217 0-25.554433 12.777216-38.331649 12.777217-19.165825 25.554433-38.33165 44.720258-57.497475z" p-id="2320" fill="#7ebbb7"></path></svg>