<?xml version="1.0" standalone="no"?><!DOCTYPE svg PUBLIC "-//W3C//DTD SVG 1.1//EN" "http://www.w3.org/Graphics/SVG/1.1/DTD/svg11.dtd"><svg t="1679220250544" class="icon" viewBox="0 0 1024 1024" version="1.1" xmlns="http://www.w3.org/2000/svg" p-id="1772" xmlns:xlink="http://www.w3.org/1999/xlink" width="200" height="200"><path d="M458.788711 576.146453c-45.595728-33.000763-81.427918-78.889397-102.126621-132.393593h-94.706331c-139.618612 0-252.680397 114.23341-252.680397 254.926011 0 46.083905 37.101449 83.575896 82.892449 83.575896h126.242563c42.764302-101.93135 131.710145-179.551487 240.378337-206.108314z" fill="#7ebbb7" p-id="1773"></path><path d="M410.849733 344.848207a229.052632 227.002288 90 1 0 454.004577 0 229.052632 227.002288 90 1 0-454.004577 0Z" fill="#7ebbb7" p-id="1774"></path><path d="M322.294432 394.642258c6.736842 0 13.376049-0.390542 19.91762-0.976354-3.61251-18.453089-5.467582-37.394355-5.467582-56.921434 0-108.375286 58.093059-203.081617 144.500381-254.242563C445.803204 32.512586 387.80778 0 322.294432 0 214.309687 0 126.73074 88.360031 126.73074 197.321129s87.578947 197.321129 195.563692 197.321129zM714.398169 917.772693c0-22.749047 25.385202-41.1045 56.530893-41.104501h243.795576c-3.514874-20.503432-9.080092-40.323417-16.598017-59.264683H770.929062c-31.243326 0-56.530892-18.453089-56.530893-41.104501 0-22.749047 25.385202-41.1045 56.530893-41.1045h177.891686c-53.797101-63.755912-133.955759-104.176964-223.292144-104.176964H567.847445c-162.074752 0-293.29672 132.686499-293.29672 295.932876 0 53.601831 43.057208 97.04958 96.170862 97.04958h552.030511c41.983219 0 77.717773-27.142639 90.800915-65.122807H770.929062c-31.243326 0-56.530892-18.453089-56.530893-41.1045z" fill="#7ebbb7" p-id="1775"></path></svg>