<?xml version="1.0" standalone="no"?><!DOCTYPE svg PUBLIC "-//W3C//DTD SVG 1.1//EN" "http://www.w3.org/Graphics/SVG/1.1/DTD/svg11.dtd"><svg t="1679220481494" class="icon" viewBox="0 0 1024 1024" version="1.1" xmlns="http://www.w3.org/2000/svg" p-id="1225" xmlns:xlink="http://www.w3.org/1999/xlink" width="200" height="200"><path d="M716.8 51.2a68.266667 68.266667 0 0 1 68.266667 68.266667l0.017066 148.667733c71.68 15.36 125.7984 78.148267 127.914667 153.924267l0.068267 4.608v409.6a162.133333 162.133333 0 0 1-157.525334 162.065066L750.933333 998.4H273.066667a162.133333 162.133333 0 0 1-162.065067-157.525333L110.933333 836.266667V426.666667c0-77.824 54.852267-142.848 128-158.549334V119.466667a68.266667 68.266667 0 0 1 68.266667-68.266667h409.6z m145.066667 512h-699.733334v273.066667a110.933333 110.933333 0 0 0 106.9568 110.865066L273.066667 947.2h477.866666a110.933333 110.933333 0 0 0 110.865067-106.9568L861.866667 836.266667V563.2zM162.2016 422.690133L162.133333 426.666667v85.333333h78.9504A68.386133 68.386133 0 0 1 238.933333 494.933333V321.0752a111.0016 111.0016 0 0 0-76.731733 101.614933zM785.066667 321.092267V494.933333c0 5.905067-0.750933 11.605333-2.1504 17.066667H861.866667v-85.333333a110.984533 110.984533 0 0 0-76.8-105.5744zM716.8 102.4H307.2a17.066667 17.066667 0 0 0-16.9472 15.069867L290.133333 119.466667v375.466666a17.066667 17.066667 0 0 0 15.069867 16.9472L307.2 512h409.6a17.066667 17.066667 0 0 0 16.9472-15.069867L733.866667 494.933333V119.466667a17.066667 17.066667 0 0 0-15.069867-16.9472L716.8 102.4z m-114.8928 5.000533l36.1984 36.1984L559.837867 221.866667H648.533333v51.2h-102.4v68.266666h102.4v51.2h-102.417066L546.133333 494.933333h-51.2l-0.017066-102.4H392.533333v-51.2h102.4v-68.266666h-102.4v-51.2h88.6784l-78.250666-78.267734 36.1984-36.1984L520.533333 188.757333l81.373867-81.3568z" fill="#7ebbb7" p-id="1226"></path></svg>