<?xml version="1.0" standalone="no"?><!DOCTYPE svg PUBLIC "-//W3C//DTD SVG 1.1//EN" "http://www.w3.org/Graphics/SVG/1.1/DTD/svg11.dtd"><svg t="1679220695584" class="icon" viewBox="0 0 1024 1024" version="1.1" xmlns="http://www.w3.org/2000/svg" p-id="2533" xmlns:xlink="http://www.w3.org/1999/xlink" width="200" height="200"><path d="M904.533333 0c68.266667 0 119.466667 51.2 119.466667 119.466667v557.511111c0 68.266667-51.2 119.466667-119.466667 119.466666H119.466667C51.2 796.444444 0 745.244444 0 676.977778V119.466667C0 51.2 51.2 0 119.466667 0h785.066666z m0 96.711111H119.466667c-11.377778 0-22.755556 5.688889-22.755556 17.066667v563.2c0 11.377778 5.688889 22.755556 17.066667 22.755555h790.755555c11.377778 0 22.755556-5.688889 22.755556-17.066666V119.466667c0-11.377778-5.688889-22.755556-22.755556-22.755556z" p-id="2534" fill="#7ebbb7"></path><path d="M216.177778 910.222222h591.644444c22.755556 0 45.511111 22.755556 45.511111 45.511111s-22.755556 45.511111-45.511111 45.511111H216.177778c-22.755556 0-45.511111-22.755556-45.511111-45.511111s22.755556-45.511111 45.511111-45.511111z" p-id="2535" fill="#7ebbb7"></path><path d="M637.155556 512c-17.066667 0-28.444444 0-45.511112-5.688889-45.511111-11.377778-85.333333-39.822222-108.088888-79.644444l-5.688889-5.688889c-5.688889-11.377778-17.066667-22.755556-28.444445-28.444445-34.133333-17.066667-79.644444-5.688889-96.711111 28.444445l-34.133333 51.2c-11.377778 22.755556-34.133333 28.444444-56.888889 17.066666s-28.444444-39.822222-17.066667-56.888888l28.444445-51.2c45.511111-73.955556 142.222222-102.4 216.177777-56.888889 22.755556 11.377778 45.511111 34.133333 56.888889 56.888889l5.688889 5.688888c11.377778 22.755556 34.133333 34.133333 56.888889 45.511112 22.755556 5.688889 51.2 0 68.266667-11.377778 11.377778-5.688889 17.066667-11.377778 22.755555-17.066667 17.066667-17.066667 39.822222-22.755556 62.577778-5.688889 17.066667 17.066667 22.755556 39.822222 5.688889 62.577778-11.377778 17.066667-28.444444 28.444444-45.511111 39.822222-22.755556 5.688889-56.888889 11.377778-85.333333 11.377778z" p-id="2536" fill="#7ebbb7"></path></svg>