<?xml version="1.0" standalone="no"?><!DOCTYPE svg PUBLIC "-//W3C//DTD SVG 1.1//EN" "http://www.w3.org/Graphics/SVG/1.1/DTD/svg11.dtd"><svg t="1679220785397" class="icon" viewBox="0 0 1024 1024" version="1.1" xmlns="http://www.w3.org/2000/svg" p-id="1439" xmlns:xlink="http://www.w3.org/1999/xlink" width="200" height="200"><path d="M853.333333 64a106.666667 106.666667 0 0 1 106.56 102.037333L960 170.666667v149.333333a106.666667 106.666667 0 0 1-102.037333 106.56L853.333333 426.666667h-21.333333v448a85.333333 85.333333 0 0 1-85.333333 85.333333H277.333333a85.333333 85.333333 0 0 1-85.333333-85.333333V426.666667H170.666667a106.666667 106.666667 0 0 1-106.56-102.037334L64 320V170.666667a106.666667 106.666667 0 0 1 102.037333-106.56L170.666667 64h682.666666z m-106.666666 192H277.333333a42.666667 42.666667 0 0 0-42.56 39.466667L234.666667 298.666667v576a42.666667 42.666667 0 0 0 39.466666 42.56L277.333333 917.333333h469.333334a42.666667 42.666667 0 0 0 42.56-39.466666L789.333333 874.666667V298.666667a42.666667 42.666667 0 0 0-39.466666-42.56L746.666667 256z m-127.786667 170.666667l30.186667 30.165333-70.272 70.250667h65.621333v42.666666h-106.666667v64h106.666667v42.666667h-106.666667v119.210667h-42.666666v-119.210667h-106.666667v-42.666667h106.666667v-64h-106.666667v-42.666666h65.834667L384 456.832 414.165333 426.666667l100.416 100.416h3.882667L618.901333 426.666667zM853.333333 106.666667H170.666667a64 64 0 0 0-63.893334 60.245333L106.666667 170.666667v149.333333a64 64 0 0 0 60.245333 63.893333L170.666667 384h21.333333v-85.333333a85.333333 85.333333 0 0 1 85.333333-85.333334h469.333334a85.333333 85.333333 0 0 1 85.333333 85.333334v85.333333h21.333333a64 64 0 0 0 63.893334-60.245333L917.333333 320V170.666667a64 64 0 0 0-60.245333-63.893334L853.333333 106.666667z" fill="#7ebbb7" p-id="1440"></path></svg>