<?xml version="1.0" standalone="no"?><!DOCTYPE svg PUBLIC "-//W3C//DTD SVG 1.1//EN" "http://www.w3.org/Graphics/SVG/1.1/DTD/svg11.dtd"><svg t="1679214468819" class="icon" viewBox="0 0 1024 1024" version="1.1" xmlns="http://www.w3.org/2000/svg" p-id="4231" xmlns:xlink="http://www.w3.org/1999/xlink" width="200" height="200"><path d="M926.656 414.656L608.32 96.32 704 0l320 320-97.344 94.656z m-94.72 92.224c-2.176 2.112-3.904 3.264-5.952 5.12H704l-64 256L128 1024H64l203.52-203.52c16.064 7.296 33.728 11.52 52.48 11.52 70.656 0 128-57.344 128-128s-57.344-128-128-128-128 57.344-128 128c0 18.752 4.224 36.416 11.52 52.48L0 960v-64l256-512 256-64V193.792c1.216-1.28 1.792-2.368 3.136-3.712l29.376-29.568 317.312 317.312-29.888 29.056z" p-id="4232" fill="#7ebbb7"></path></svg>