<?xml version="1.0" standalone="no"?><!DOCTYPE svg PUBLIC "-//W3C//DTD SVG 1.1//EN" "http://www.w3.org/Graphics/SVG/1.1/DTD/svg11.dtd"><svg t="1679217719786" class="icon" viewBox="0 0 1024 1024" version="1.1" xmlns="http://www.w3.org/2000/svg" p-id="4807" xmlns:xlink="http://www.w3.org/1999/xlink" width="200" height="200"><path d="M832 1024H192c-106.048 0-192-86.016-192-192V192C0 108.544 53.632 38.208 128 11.776V96a96 96 0 1 0 192 0V0h384v96a96 96 0 1 0 192 0V11.776C970.368 38.208 1024 108.544 1024 192v640c0 105.984-85.952 192-192 192z m64-704H128v512c0 35.392 28.608 64 64 64h640c35.392 0 64-28.608 64-64V320zM192 640h640v64H192v-64z m0-128h640v64H192v-64z m0-128h640v64H192v-64z m320 448H192v-64h320v64zM800 128A32 32 0 0 1 768 96V0h64v96A32 32 0 0 1 800 128z m-576 0A32 32 0 0 1 192 96V0h64v96A32 32 0 0 1 224 128z" p-id="4808" fill="#7ebbb7"></path></svg>