<?xml version="1.0" standalone="no"?><!DOCTYPE svg PUBLIC "-//W3C//DTD SVG 1.1//EN" "http://www.w3.org/Graphics/SVG/1.1/DTD/svg11.dtd"><svg t="1679221044782" class="icon" viewBox="0 0 1024 1024" version="1.1" xmlns="http://www.w3.org/2000/svg" p-id="1653" xmlns:xlink="http://www.w3.org/1999/xlink" width="200" height="200"><path d="M512 64c247.424 0 448 200.576 448 448s-200.576 448-448 448S64 759.424 64 512 264.576 64 512 64z m0 64C299.925333 128 128 299.925333 128 512s171.925333 384 384 384 384-171.925333 384-384S724.074667 128 512 128z m172.416 171.306667l45.269333 45.248L562.24 512l167.445333 167.445333-45.269333 45.248-167.445333-167.445333-167.424 167.466667-45.269334-45.269334L471.722667 512l-167.445334-167.445333 45.269334-45.248 167.424 167.424 167.466666-167.424z" fill="#7ebbb7" p-id="1654"></path></svg>