<?xml version="1.0" standalone="no"?><!DOCTYPE svg PUBLIC "-//W3C//DTD SVG 1.1//EN" "http://www.w3.org/Graphics/SVG/1.1/DTD/svg11.dtd"><svg t="1679221270320" class="icon" viewBox="0 0 1024 1024" version="1.1" xmlns="http://www.w3.org/2000/svg" p-id="1976" xmlns:xlink="http://www.w3.org/1999/xlink" width="200" height="200"><path d="M399.063988 267.012641m-249.352278 0a249.352278 249.352278 0 1 0 498.704557 0 249.352278 249.352278 0 1 0-498.704557 0Z" fill="#7ebbb7" p-id="1977"></path><path d="M495.393239 578.477217H322.201274C144.192847 578.477217 0 722.87075 0 900.678491c0 58.299265 47.261538 105.661146 105.661146 105.661146h606.372563c58.299265 0 105.661146-47.261538 105.661146-105.661146-0.100343-177.807741-144.493876-322.201274-322.301616-322.201274zM978.444292 189.848898H730.195786c-25.085742 0-45.555708 20.369623-45.555708 45.555708 0 25.085742 20.369623 45.555708 45.555708 45.555708h248.348849c25.085742 0 45.555708-20.369623 45.555708-45.555708-0.100343-25.186085-20.469966-45.555708-45.656051-45.555708zM978.444292 412.509946H730.195786c-25.085742 0-45.555708 20.369623-45.555708 45.555708 0 25.085742 20.369623 45.555708 45.555708 45.555708h248.348849c25.085742 0 45.555708-20.369623 45.555708-45.555708-0.100343-25.186085-20.469966-45.555708-45.656051-45.555708zM978.444292 635.070652H859.638217c-25.085742 0-45.555708 20.369623-45.555708 45.555708 0 25.085742 20.369623 45.555708 45.555708 45.555708h118.806075c25.085742 0 45.555708-20.369623 45.555708-45.555708 0-25.186085-20.369623-45.555708-45.555708-45.555708z" fill="#7ebbb7" p-id="1978"></path></svg>