<?xml version="1.0" standalone="no"?><!DOCTYPE svg PUBLIC "-//W3C//DTD SVG 1.1//EN" "http://www.w3.org/Graphics/SVG/1.1/DTD/svg11.dtd"><svg t="1679221351738" class="icon" viewBox="0 0 1024 1024" version="1.1" xmlns="http://www.w3.org/2000/svg" p-id="2179" xmlns:xlink="http://www.w3.org/1999/xlink" width="200" height="200"><path d="M471.4 553.2L40.5 411.9c-6.8 32.3-10.4 65.8-10.4 100.1 0 266.1 215.7 481.9 481.9 481.9S993.9 778.1 993.9 512c0-55.9-9.5-109.6-27-159.5L471.4 553.2z" fill="#7ebbb7" p-id="2180"></path><path d="M583.3 435.9l407-164.9c-40.1-77.6-98.2-144.4-168.6-195L583.3 435.9zM474.7 479.9L736 85.2C669.1 50 592.9 30.1 512 30.1c-207.9 0-385 131.6-452.6 316l412 135.1 3.3-1.3z" fill="#7ebbb7" p-id="2181"></path></svg>