<?xml version="1.0" standalone="no"?><!DOCTYPE svg PUBLIC "-//W3C//DTD SVG 1.1//EN" "http://www.w3.org/Graphics/SVG/1.1/DTD/svg11.dtd"><svg t="1679221566392" class="icon" viewBox="0 0 1024 1024" version="1.1" xmlns="http://www.w3.org/2000/svg" p-id="1867" xmlns:xlink="http://www.w3.org/1999/xlink" width="200" height="200"><path d="M762.304 64c60.288 0 109.76 46.08 112.256 104.234667l0.106667 4.629333v437.589333h-42.666667V172.864c0-35.114667-28.906667-64.128-65.706667-66.090667L762.304 106.666667H261.696C224.362667 106.666667 194.133333 134.464 192.106667 169.109333L192 172.864v678.272c0 35.114667 28.906667 64.128 65.706667 66.090667l3.989333 0.106666 357.397333 0.021334a181.333333 181.333333 0 1 1 6.677334 7.424V960H261.696c-60.288 0-109.76-46.08-112.256-104.234667L149.333333 851.136V172.864c0-58.773333 47.936-106.368 107.626667-108.778667L261.696 64h500.608zM757.333333 661.333333a138.666667 138.666667 0 1 0 0 277.333334 138.666667 138.666667 0 0 0 0-277.333334z m26.816 8.192l33.642667 26.282667-25.450667 32.554667h43.52v42.666666H778.666667v24.384h69.845333v42.666667H778.666667V917.333333h-42.666667v-79.253333H661.333333v-42.666667h74.666667v-24.384h-57.216v-42.666666h43.52l-25.429333-32.554667 33.642666-26.282667 26.816 34.346667 26.816-34.346667zM426.666667 554.666667v42.666666h-192v-42.666666h192z m128-128v42.666666H234.666667v-42.666666h320z m170.666666-128v42.666666H234.666667v-42.666666h490.666666z" fill="#7ebbb7" p-id="1868"></path></svg>