<?xml version="1.0" standalone="no"?><!DOCTYPE svg PUBLIC "-//W3C//DTD SVG 1.1//EN" "http://www.w3.org/Graphics/SVG/1.1/DTD/svg11.dtd"><svg t="1679221796645" class="icon" viewBox="0 0 1024 1024" version="1.1" xmlns="http://www.w3.org/2000/svg" p-id="2382" xmlns:xlink="http://www.w3.org/1999/xlink" width="200" height="200"><path d="M956.669868 64.018814H631.458305c-66.025674 0-119.508476 53.482803-119.508476 119.508477 0-66.025674-53.482803-119.508476-119.508477-119.508477h-325.11122c-29.300147 0-53.081431 23.781284-53.08143 53.081431v717.050857c0 29.300147 23.781284 53.081431 53.08143 53.081431h335.747575c17.660363 42.746105 59.80441 72.748653 108.872122 72.748653s91.211759-30.002548 108.872121-72.748653h335.747575c29.300147 0 53.081431-23.781284 53.08143-53.081431V117.100245c0.100343-29.300147-23.680941-53.081431-52.981087-53.081431zM405.285252 691.864772c0 18.864478-15.252131 34.11661-34.116609 34.11661H126.532484c-18.864478 0-34.11661-15.252131-34.116609-34.11661s15.252131-34.11661 34.116609-34.116609h244.636159c18.864478 0 34.11661 15.252131 34.116609 34.116609z m0-206.907202c0 18.864478-15.252131 34.11661-34.116609 34.116609H126.532484c-18.864478 0-34.11661-15.252131-34.116609-34.116609s15.252131-34.11661 34.116609-34.11661h244.636159c18.864478-0.100343 34.11661 15.252131 34.116609 34.11661z m0-196.973249c0 18.864478-15.252131 34.11661-34.116609 34.11661H126.532484c-18.864478 0-34.11661-15.252131-34.116609-34.11661s15.252131-34.11661 34.116609-34.116609h244.636159c18.864478 0 34.11661 15.252131 34.116609 34.116609z m520.077609 379.998825c-17.258991 17.258991-45.154336 17.258991-62.312983 0l-77.163744-77.163744c-20.570309 10.435669-43.849878 16.355904-68.534248 16.355904-83.585693 0-151.317197-67.731504-151.317197-151.317197S633.866536 304.540911 717.452229 304.540911 868.769427 372.272415 868.769427 455.858109c0 26.791573-7.024008 52.078001-19.26585 73.852425l75.859284 75.859285c17.158648 17.258991 17.158648 45.154336 0 62.413327z" fill="#7ebbb7" p-id="2383"></path></svg>