<?xml version="1.0" standalone="no"?><!DOCTYPE svg PUBLIC "-//W3C//DTD SVG 1.1//EN" "http://www.w3.org/Graphics/SVG/1.1/DTD/svg11.dtd"><svg t="1679221860298" class="icon" viewBox="0 0 1024 1024" version="1.1" xmlns="http://www.w3.org/2000/svg" p-id="2745" xmlns:xlink="http://www.w3.org/1999/xlink" width="200" height="200"><path d="M900.042105 970.105263H113.178947c-16.168421 0-32.336842-10.778947-32.336842-32.336842 0-16.168421 16.168421-32.336842 32.336842-32.336842h786.863158c16.168421 0 32.336842 16.168421 32.336842 32.336842 0 21.557895-16.168421 32.336842-32.336842 32.336842z m0-129.347368H113.178947c-16.168421 0-32.336842-16.168421-32.336842-32.336842v-161.684211c0-53.894737 43.115789-97.010526 97.010527-97.010526h210.189473c-5.389474-37.726316-26.947368-75.452632-53.894737-107.789474-37.726316-48.505263-53.894737-102.4-53.894736-156.294737 0-64.673684 21.557895-123.957895 70.063157-167.073684S452.715789 53.894737 517.389474 53.894737c118.568421 5.389474 215.578947 107.789474 220.968421 226.357895 0 59.284211-21.557895 118.568421-59.284211 161.68421-26.947368 26.947368-43.115789 64.673684-48.505263 107.789474H835.368421c53.894737 0 97.010526 43.115789 97.010526 97.010526v161.684211c0 16.168421-16.168421 32.336842-32.336842 32.336842z m-754.526316-64.673684h722.189474V646.736842c0-16.168421-16.168421-32.336842-32.336842-32.336842h-247.915789c-16.168421 0-32.336842-16.168421-32.336843-32.336842 0-70.063158 26.947368-134.736842 70.063158-183.242105 32.336842-32.336842 48.505263-75.452632 48.505264-118.568421 0-86.231579-70.063158-156.294737-156.294737-161.684211-48.505263 0-86.231579 16.168421-118.568421 48.505263-37.726316 32.336842-53.894737 70.063158-53.894737 118.568421 0 37.726316 16.168421 80.842105 43.115789 107.789474 43.115789 53.894737 70.063158 118.568421 70.063158 183.242105 0 16.168421-16.168421 32.336842-32.336842 32.336842H177.852632c-16.168421 0-32.336842 16.168421-32.336843 32.336842v134.736843z" p-id="2746" fill="#7ebbb7"></path><path d="M900.042105 980.884211H113.178947c-21.557895 0-43.115789-21.557895-43.115789-43.11579s21.557895-43.115789 43.115789-43.115789h786.863158c21.557895 0 43.115789 21.557895 43.11579 43.115789s-16.168421 43.115789-43.11579 43.11579zM113.178947 916.210526c-10.778947 0-21.557895 10.778947-21.557894 21.557895s10.778947 21.557895 21.557894 21.557895h786.863158c10.778947 0 21.557895-10.778947 21.557895-21.557895s-10.778947-21.557895-21.557895-21.557895H113.178947z m786.863158-64.673684H113.178947c-21.557895 0-43.115789-21.557895-43.115789-43.115789v-161.684211c0-59.284211 48.505263-107.789474 107.789474-107.789474h194.021052c-5.389474-37.726316-21.557895-64.673684-43.115789-97.010526-37.726316-43.115789-59.284211-102.4-59.284211-161.68421C269.473684 215.578947 296.421053 150.905263 344.926316 107.789474S452.715789 37.726316 522.778947 43.115789c123.957895 5.389474 226.357895 113.178947 231.747369 237.136843 0 59.284211-21.557895 118.568421-64.673684 167.073684-21.557895 26.947368-37.726316 53.894737-43.11579 86.231579H835.368421c59.284211 0 107.789474 48.505263 107.789474 107.789473v161.684211c0 26.947368-16.168421 48.505263-43.11579 48.505263zM177.852632 555.115789c-48.505263 0-86.231579 37.726316-86.231579 86.231579v161.684211c0 10.778947 10.778947 21.557895 21.557894 21.557895h786.863158c10.778947 0 21.557895-10.778947 21.557895-21.557895v-161.684211c0-48.505263-37.726316-86.231579-86.231579-86.231579h-220.968421v-10.778947c5.389474-43.115789 26.947368-80.842105 53.894737-113.178947 37.726316-43.115789 59.284211-97.010526 59.28421-150.905263 0-113.178947-97.010526-210.189474-210.189473-215.578948-59.284211 0-118.568421 21.557895-161.684211 59.284211-43.115789 43.115789-64.673684 102.4-64.673684 161.68421 0 53.894737 21.557895 107.789474 53.894737 145.51579s48.505263 75.452632 59.28421 113.178947v10.778947H177.852632z m700.631579 231.747369H134.736842V646.736842c0-21.557895 21.557895-43.115789 43.11579-43.115789h247.915789c10.778947 0 21.557895-10.778947 21.557895-21.557895 0-64.673684-26.947368-129.347368-70.063158-177.852632-26.947368-37.726316-43.115789-80.842105-43.11579-118.568421 0-48.505263 21.557895-91.621053 53.894737-123.957894 32.336842-37.726316 75.452632-53.894737 123.957895-53.894737 91.621053 5.389474 167.073684 80.842105 167.073684 172.463158 0 48.505263-16.168421 91.621053-48.505263 123.957894-37.726316 43.115789-64.673684 107.789474-64.673684 172.463158 0 10.778947 10.778947 21.557895 21.557895 21.557895H835.368421c21.557895 0 43.115789 21.557895 43.11579 43.115789v145.51579z m-722.189474-21.557895h700.631579V646.736842c0-10.778947-10.778947-21.557895-21.557895-21.557895h-247.915789c-21.557895 0-43.115789-21.557895-43.11579-43.115789 0-70.063158 26.947368-140.126316 75.452632-188.631579 26.947368-26.947368 43.115789-64.673684 43.115789-107.789474 0-80.842105-70.063158-145.515789-145.515789-150.905263-48.505263-5.389474-86.231579 10.778947-113.178948 37.726316-32.336842 26.947368-48.505263 70.063158-48.505263 107.789474s16.168421 75.452632 37.726316 102.4c48.505263 53.894737 75.452632 123.957895 75.452632 194.021052 0 21.557895-21.557895 43.115789-43.11579 43.11579H177.852632c-10.778947 0-21.557895 10.778947-21.557895 21.557894v123.957895z" p-id="2747" fill="#7ebbb7"></path></svg>