<?xml version="1.0" standalone="no"?><!DOCTYPE svg PUBLIC "-//W3C//DTD SVG 1.1//EN" "http://www.w3.org/Graphics/SVG/1.1/DTD/svg11.dtd"><svg t="1679220049878" class="icon" viewBox="0 0 1024 1024" version="1.1" xmlns="http://www.w3.org/2000/svg" p-id="5041" xmlns:xlink="http://www.w3.org/1999/xlink" width="200" height="200"><path d="M824.896 560.384C925.248 616 1004.224 714.624 1024 832c0 105.984-86.016 192-192 192h-88.448a255.317333 255.317333 0 0 0 79.36-128H832c35.392 0 64-28.608 64-64-16.512-63.744-60.096-117.248-116.608-151.68a466.389333 466.389333 0 0 0-118.848-136c7.424-12.608 13.824-25.792 19.392-39.296C730.944 488.128 768 440.64 768 384v-128c0-56.704-37.056-104.192-88.128-121.024-20.864-50.752-55.04-94.144-97.344-127.936C601.088 2.752 620.16 0 640 0c141.376 0 256 114.624 256 256v128c0 68.544-27.328 130.432-71.104 176.384zM576 1024H192c-106.048 0-192-86.016-192-192 19.776-117.376 98.752-216 199.168-271.616C155.328 514.432 128 452.544 128 384v-128C128 114.624 242.624 0 384 0s256 114.624 256 256v128c0 68.544-27.328 130.432-71.104 176.384C669.248 616 748.224 714.624 768 832c0 105.984-86.016 192-192 192z m-64-640v-128c0-70.656-57.344-128-128-128s-128 57.344-128 128v128c0 70.656 57.344 128 128 128s128-57.344 128-128z m128 448c-28.544-110.272-136.896-192-256-192-119.168 0-227.456 81.728-256 192a64 64 0 0 0 64 64h384c35.392 0 64-28.608 64-64z" p-id="5042" fill="#7ebbb7"></path></svg>