<?xml version="1.0" standalone="no"?><!DOCTYPE svg PUBLIC "-//W3C//DTD SVG 1.1//EN" "http://www.w3.org/Graphics/SVG/1.1/DTD/svg11.dtd"><svg t="1679222030969" class="icon" viewBox="0 0 1024 1024" version="1.1" xmlns="http://www.w3.org/2000/svg" p-id="5271" xmlns:xlink="http://www.w3.org/1999/xlink" width="200" height="200"><path d="M960 896h-192v-64h32a32 32 0 0 0 0-64h-128c-17.6 0-32 14.336-32 32s14.4 32 32 32H704v64H320v-64h32a32 32 0 0 0 0-64h-128a32 32 0 0 0 0 64H256v64H64a64 64 0 0 1-64-64V192c0-35.328 28.672-64 64-64h896a64 64 0 0 1 64 64v640c0 35.392-28.608 64-64 64z m-320-192h64v-64h-64v64z m0-256h128v-64h-128v64z m-64-192H128v448h448V256z m256 0h-192v64h192v-64z m128 0h-64v64h64v-64z m0 128h-128v64h128v-64z m0 128H640v64h320v-64z m-640 67.904v-10.368c-37.12-13.312-64-47.872-64-89.536v-64c0-53.056 42.944-96 96-96s96 42.944 96 96v64c0 41.664-26.88 76.224-64 89.536v10.304A160.298667 160.298667 0 0 1 479.296 640H224.704A159.914667 159.914667 0 0 1 320 579.904z" p-id="5272" fill="#7ebbb7"></path></svg>